<svg xmlns="http://www.w3.org/2000/svg" width="60" height="60"><path d="M36.43 24.375c0-2.214-1.362-4.144-3.372-5.13l1.104-1.919s.053-.103-.047-.159c-.1-.058-.166.04-.166.04l-1.121 1.937A6.947 6.947 0 0030 18.549a6.94 6.94 0 00-2.828.595l-1.121-1.937s-.062-.098-.162-.041c-.101.058-.051.16-.051.16l1.104 1.919c-2.01.986-3.372 2.916-3.372 5.13h12.86zm-3.372-3.331c.337 0 .611.274.611.611s-.274.604-.611.604a.606.606 0 110-1.215zm-6.116 1.215a.606.606 0 110-1.215c.337 0 .611.274.611.611s-.274.604-.611.604zm-4.171 4.189v5.788c0 .844-.62 1.528-1.386 1.528-.765 0-1.386-.685-1.386-1.528v-5.788c0-.844.621-1.528 1.386-1.528.766 0 1.386.684 1.386 1.528zm17.229 0v5.788c0 .844-.62 1.528-1.386 1.528-.765 0-1.386-.685-1.386-1.528v-5.788c0-.844.621-1.528 1.386-1.528.766 0 1.386.684 1.386 1.528zm-16.481-1.324H36.48v9.755c0 .484-.585 1.118-1.069 1.118H33.89v3.325c0 .847-.625 1.529-1.394 1.529-.768 0-1.384-.683-1.384-1.529v-3.325h-2.226v3.325c0 .847-.617 1.529-1.385 1.529s-1.385-.683-1.385-1.529v-3.325h-1.529c-.484 0-1.069-.634-1.069-1.118v-9.755z"/></svg>