<?xml version="1.0" encoding="utf-8"?>
<!-- Generator: Adobe Illustrator 16.0.0, SVG Export Plug-In . SVG Version: 6.00 Build 0)  -->
<!DOCTYPE svg PUBLIC "-//W3C//DTD SVG 1.1//EN" "http://www.w3.org/Graphics/SVG/1.1/DTD/svg11.dtd">
<svg version="1.1" id="Layer_1" xmlns="http://www.w3.org/2000/svg" xmlns:xlink="http://www.w3.org/1999/xlink" x="0px" y="0px"
	 width="28px" height="15px" viewBox="0 0 28 15" enable-background="new 0 0 28 15" xml:space="preserve">
<path d="M9.866,0h2.659v15H9.866V8.68H2.654V15H0V0h2.654v6.24h7.212V0z M28,10.846v0.039C28,13.564,25.773,15,22.407,15H15.41V0
	h6.78c1.728,0,3.087,0.47,3.952,1.33c0.67,0.665,1.015,1.475,1.015,2.485v0.04c0,1.805-1.037,2.765-2.158,3.345
	C26.768,7.8,28,8.811,28,10.846z M18.021,6.32h3.627c1.707,0,2.853-0.66,2.853-2.035v-0.04c0-1.18-0.95-1.91-2.655-1.91h-3.824V6.32
	z M25.344,10.561c0-1.261-1.018-2.011-3.109-2.011h-4.213v4.115h4.405c1.815,0,2.917-0.705,2.917-2.056V10.561z"/>
</svg>
