<?xml version="1.0" encoding="utf-8"?>
<!-- Generator: Adobe Illustrator 16.0.0, SVG Export Plug-In . SVG Version: 6.00 Build 0)  -->
<!DOCTYPE svg PUBLIC "-//W3C//DTD SVG 1.1//EN" "http://www.w3.org/Graphics/SVG/1.1/DTD/svg11.dtd">
<svg version="1.1" id="Layer_1" xmlns="http://www.w3.org/2000/svg" xmlns:xlink="http://www.w3.org/1999/xlink" x="0px" y="0px"
	 width="16px" height="15px" viewBox="0 0 16 15" enable-background="new 0 0 16 15" xml:space="preserve">
<path d="M0,2.5c0-0.553,0.447-1,1-1h14c0.553,0,1,0.447,1,1s-0.447,1-1,1H1C0.447,3.5,0,3.053,0,2.5z M15,6.5H1
	c-0.553,0-1,0.447-1,1s0.447,1,1,1h14c0.553,0,1-0.447,1-1S15.553,6.5,15,6.5z M15,11.5H1c-0.553,0-1,0.447-1,1s0.447,1,1,1h14
	c0.553,0,1-0.447,1-1S15.553,11.5,15,11.5z"/>
</svg>
